<svg xmlns="http://www.w3.org/2000/svg" id="Layer_2" width="231.014" height="66" viewBox="0 0 231.014 66">
    <defs>
        <style>
            .cls-1{fill:#d7771a}.cls-2{fill:#474c55}
        </style>
    </defs>
    <g id="Layer_1">
        <path id="Path_1" d="M53.171 12.73s-29.4.449-40.431 25.244c0 0 1.13 10.483 11.6 20.068a38.814 38.814 0 0 1 .975-19.419A40.075 40.075 0 0 1 53.171 12.73" class="cls-1" transform="translate(-2.884 -2.881)"/>
        <path id="Path_2" d="M51.393 20.31S26.776 35.783 36.949 65.344c0 0 13.817 9.09 33.631 3.342 0 0-23.821 0-28.818-21.531a26.3 26.3 0 0 1 9.631-26.845" class="cls-1" transform="translate(-7.806 -4.597)"/>
        <path id="Path_3" d="M95 18.637c-1.694-2.166-4.24-3.489-6.622-4.9C88.389 13.725 76.839 0 55.54 0a39.99 39.99 0 0 1 14.784 9.284s1.447.286 6.189 1.834a10.127 10.127 0 0 1 1.106 2.321l-.557.689-3.977-1.748-3.868.418s1.13 1.145 2.321 2.638 2.406 3.28 2.406 3.28C56.113 26.064 61.868 41 61.868 41c.348-12.773 14.5-15.38 14.5-15.38 5.33-.7 11.674-.983 15.125.062a4.363 4.363 0 0 1 3.149 3.2 4.541 4.541 0 0 1-1 3.683c1.346-.882 6.661-7.133 1.362-13.926" class="cls-1" transform="translate(-12.572)"/>
        <path id="Path_4" d="M33.383 1.27C23.209 3.189 5.926 11.73 0 31.388c0 0 13.477-24.648 51.517-22.637A45.119 45.119 0 0 0 33.383 1.27" class="cls-1" transform="translate(0 -.287)"/>
        <path id="Path_5" d="M132.821 83.648a2.955 2.955 0 0 1-1.7-.557.077.077 0 0 1 0-.046.077.077 0 0 1 0-.054l.271-.379a.077.077 0 0 1 .062 0 2.561 2.561 0 0 0 1.269.348c.673 0 1.06-.317 1.06-.874 0-.379-.116-.774-.967-1.052s-1.694-.7-1.694-1.617S131.83 78 132.844 78a2.538 2.538 0 0 1 1.485.449.077.077 0 0 1 0 .046.077.077 0 0 1 0 .062l-.279.371a.07.07 0 0 1-.062 0 2.421 2.421 0 0 0-1.091-.263c-.472 0-.975.186-.975.712 0 .248.1.542.828.82 1.362.5 1.841 1 1.841 1.88a1.6 1.6 0 0 1-1.764 1.547" class="cls-2" transform="translate(-29.678 -17.655)"/>
        <path id="Path_6" d="M140.394 83.533a.077.077 0 0 1-.077-.077v-2.422h-2.545v2.422a.077.077 0 0 1-.077.077h-.619a.077.077 0 0 1-.077-.077v-4.99a.077.077 0 0 1 0-.062l.619-.456h.046a.077.077 0 0 1 .108.039v2.321h2.545v-1.842a.077.077 0 0 1 0-.062l.619-.456h.046a.077.077 0 0 1 .039.07v5.416a.077.077 0 0 1-.077.077z" class="cls-2" transform="translate(-31.008 -17.641)"/>
        <path id="Path_7" d="M147.124 83.579a.077.077 0 0 1-.07-.054l-.41-1.191h-2.2l-.418 1.191a.077.077 0 0 1-.07.054h-.65a.047.047 0 0 1-.062-.07l1.9-5.315a.077.077 0 0 1 .07-.054h.65a.077.077 0 0 1 .07.054l1.9 5.253a.047.047 0 0 1-.062.07zm-.719-1.911l-.874-2.545-.866 2.545z" class="cls-2" transform="translate(-32.422 -17.687)"/>
        <path id="Path_8" d="M152.884 83.54a.077.077 0 0 1-.07-.046l-.967-2.135h-.317a5.576 5.576 0 0 1-.627-.039v2.128a.077.077 0 0 1-.077.077h-.619a.077.077 0 0 1-.077-.077v-5.292a.077.077 0 0 1 .062-.077 10.582 10.582 0 0 1 1.307-.108c1.7 0 1.957 1.06 1.957 1.694a1.547 1.547 0 0 1-.921 1.547l1.044 2.2a.077.077 0 0 1-.07.108zm-1.973-2.862a4.517 4.517 0 0 0 .6.039c.774 0 1.153-.356 1.153-1.06s-.387-1.044-1.153-1.044a3.752 3.752 0 0 0-.6.046z" class="cls-2" transform="translate(-33.982 -17.649)"/>
        <path id="Path_9" d="M156.1 83.551a2.012 2.012 0 0 1-1.021-.34.078.078 0 0 1 0-.046.077.077 0 0 1 0-.054l.217-.333a.077.077 0 0 1 .062 0 1.246 1.246 0 0 0 .565.162c.193 0 .441-.062.441-.6v-3.872a.077.077 0 0 1 0-.062l.619-.456h.046a.077.077 0 0 1 .039.07v4.363c0 .774-.379 1.176-1.052 1.176" class="cls-2" transform="translate(-35.101 -17.644)"/>
        <path id="Path_10" d="M162.59 83.57a.077.077 0 0 1-.07-.054l-.41-1.191h-2.2l-.418 1.191a.077.077 0 0 1-.07.054h-.65a.077.077 0 0 1-.07-.1l1.9-5.315a.077.077 0 0 1 .07-.054h.65a.077.077 0 0 1 .07.054l1.9 5.284a.047.047 0 0 1-.062.07zm-.719-1.911L161 79.113l-.866 2.545z" class="cls-2" transform="translate(-35.921 -17.678)"/>
        <path id="Path_11" d="M169 83.536a.077.077 0 0 1-.077-.077v-2.422h-2.553v2.422a.077.077 0 0 1-.077.077h-.619a.077.077 0 0 1-.077-.077v-4.99a.077.077 0 0 1 0-.062l.619-.456h.046a.077.077 0 0 1 .039.07v2.321h2.553v-1.874a.077.077 0 0 1 0-.062l.619-.456h.046a.077.077 0 0 1 .039.07v5.416a.077.077 0 0 1-.077.077z" class="cls-2" transform="translate(-37.482 -17.644)"/>
        <path id="Path_12" d="M175.927 83.641a11.652 11.652 0 0 1-1.385-.108.077.077 0 0 1-.062-.077v-5.3a.077.077 0 0 1 .062-.077 10.258 10.258 0 0 1 1.377-.108c1.625 0 1.865.952 1.865 1.547a1.207 1.207 0 0 1-.774 1.13 1.416 1.416 0 0 1 .967 1.424c0 .983-.774 1.547-2.027 1.547m-.673-.7a5.185 5.185 0 0 0 .774.046c.774 0 1.145-.317 1.145-.936a.983.983 0 0 0-1.091-1.075h-.774zm.774-2.63c.573 0 .944-.3.944-.774 0-.627-.356-.928-1.083-.928a4.825 4.825 0 0 0-.65.046v1.679z" class="cls-2" transform="translate(-39.494 -17.649)"/>
        <path id="Path_13" d="M183.044 83.54a.077.077 0 0 1-.07-.046l-.967-2.135h-.317a5.56 5.56 0 0 1-.627-.039v2.128a.077.077 0 0 1-.077.077h-.619a.077.077 0 0 1-.077-.077v-5.292a.077.077 0 0 1 .062-.077 10.613 10.613 0 0 1 1.307-.108c1.7 0 1.957 1.06 1.957 1.694a1.547 1.547 0 0 1-.921 1.547l1.044 2.2a.047.047 0 0 1-.062.07zm-1.973-2.862a4.536 4.536 0 0 0 .6.039c.774 0 1.153-.356 1.153-1.06s-.387-1.044-1.153-1.044a3.742 3.742 0 0 0-.6.046z" class="cls-2" transform="translate(-40.809 -17.649)"/>
        <path id="Path_14" d="M187.88 83.641c-1.625 0-2.36-1.462-2.36-2.824s.774-2.847 2.36-2.847 2.321 1.478 2.321 2.847-.774 2.824-2.321 2.824m0-4.982c-1.137 0-1.547 1.114-1.547 2.158 0 1.338.572 2.135 1.547 2.135s1.547-.774 1.547-2.135c0-1.044-.41-2.158-1.547-2.158" class="cls-2" transform="translate(-41.993 -17.649)"/>
        <path id="Path_15" d="M196.021 83.579a.077.077 0 0 1-.07-.054l-.41-1.191h-2.2l-.418 1.191a.077.077 0 0 1-.07.054h-.65a.047.047 0 0 1-.062-.07l1.9-5.315a.077.077 0 0 1 .07-.054h.65a.077.077 0 0 1 .07.054l1.9 5.253a.047.047 0 0 1-.062.07zm-.719-1.911l-.874-2.545-.851 2.545z" class="cls-2" transform="translate(-43.489 -17.687)"/>
        <path id="Path_16" d="M200.433 83.637a11.3 11.3 0 0 1-1.331-.108.077.077 0 0 1-.062-.077v-5.3a.077.077 0 0 1 .062-.077 10.582 10.582 0 0 1 1.284-.108 2.84 2.84 0 0 1 .054 5.679m-.627-.7a4.819 4.819 0 0 0 .619.046c1.246 0 1.934-.774 1.934-2.2s-.774-2.166-1.95-2.166a4.185 4.185 0 0 0-.6.046z" class="cls-2" transform="translate(-45.053 -17.645)"/>
        <path id="Path_17" d="M207.692 83.641a2.477 2.477 0 0 1-2.422-2.777c0-1.4.812-2.893 2.321-2.893a2.321 2.321 0 0 1 1.547.542.077.077 0 0 1 0 .1l-.255.371a.077.077 0 0 1-.062 0h-.039a1.988 1.988 0 0 0-1.114-.34c-.983 0-1.609.866-1.609 2.2s.665 2.081 1.687 2.081a1.965 1.965 0 0 0 1.106-.379h.046a.07.07 0 0 1 .046 0l.255.371a.077.077 0 0 1 0 .1 2.375 2.375 0 0 1-1.547.588" class="cls-2" transform="translate(-46.463 -17.648)"/>
        <path id="Path_18" d="M214.847 83.572a.077.077 0 0 1-.07-.054l-.41-1.191h-2.2l-.41 1.2a.077.077 0 0 1-.07.054h-.7a.077.077 0 0 1-.07-.1l1.9-5.315a.077.077 0 0 1 .07-.054h.65a.077.077 0 0 1 .07.054l1.919 5.276a.047.047 0 0 1-.062.07zm-.774-1.911l-.874-2.545-.866 2.545z" class="cls-2" transform="translate(-47.739 -17.68)"/>
        <path id="Path_19" d="M219.141 83.648a2.955 2.955 0 0 1-1.7-.557 82.365 82.365 0 0 1 0-.1l.271-.379a.077.077 0 0 1 .062 0h.039a2.553 2.553 0 0 0 1.269.348c.673 0 1.06-.317 1.06-.874 0-.379-.116-.774-.967-1.052s-1.694-.7-1.694-1.617S218.189 78 219.2 78a2.545 2.545 0 0 1 1.485.449 59.91 59.91 0 0 0 0 .108l-.279.371a.077.077 0 0 1-.062 0 2.422 2.422 0 0 0-1.091-.263c-.472 0-.983.186-.983.712 0 .248.1.542.828.82 1.362.5 1.841 1 1.841 1.88a1.6 1.6 0 0 1-1.764 1.547" class="cls-2" transform="translate(-49.216 -17.655)"/>
        <path id="Path_20" d="M224.312 83.57a.077.077 0 0 1-.077-.077V78.8h-1.547a.077.077 0 0 1-.077-.077v-.542a.077.077 0 0 1 .077-.077h3.992a.077.077 0 0 1 .077.077v.519a.077.077 0 0 1-.077.077h-1.671V83.5a.077.077 0 0 1-.077.077z" class="cls-2" transform="translate(-50.388 -17.678)"/>
        <path id="Path_21" d="M229.105 83.535a.077.077 0 0 1-.077-.077v-4.99a.077.077 0 0 1 0-.062l.619-.456h.046a.077.077 0 0 1 .085.039V83.4a.077.077 0 0 1-.077.077z" class="cls-2" transform="translate(-51.839 -17.643)"/>
        <path id="Path_22" d="M235.123 83.536a.077.077 0 0 1-.062 0c-.472-.7-1.23-1.95-1.841-2.948l-.658-1.083v3.984a.077.077 0 0 1-.077.077h-.619a.077.077 0 0 1-.077-.077v-5.1a.077.077 0 0 1 0-.062l.487-.371h.046a.085.085 0 0 1 .054 0c.619.928 1.9 3.048 2.6 4.224v-3.712a.077.077 0 0 1 0-.062l.619-.456h.046a.077.077 0 0 1 .039.07v5.416a.077.077 0 0 1-.077.077z" class="cls-2" transform="translate(-52.464 -17.644)"/>
        <path id="Path_23" d="M240.637 83.641c-1.64 0-2.367-1.416-2.367-2.824s.82-2.847 2.321-2.847a2.414 2.414 0 0 1 1.547.542.077.077 0 0 1 0 .1l-.255.371a.077.077 0 0 1-.062 0h-.039a1.981 1.981 0 0 0-1.13-.34c-.774 0-1.6.681-1.6 2.189 0 1.277.642 2.1 1.632 2.1a2.568 2.568 0 0 0 .936-.186v-1.48h-.851a.077.077 0 0 1-.077-.077v-.549a.077.077 0 0 1 .077-.077h1.547a.077.077 0 0 1 .077.077v2.445a.077.077 0 0 1 0 .062 3.5 3.5 0 0 1-1.725.487" class="cls-2" transform="translate(-53.933 -17.649)"/>
        <path id="Path_24" d="M250.061 83.579a.077.077 0 0 1-.07-.054l-.41-1.191h-2.2l-.418 1.191a.077.077 0 0 1-.07.054h-.65a.047.047 0 0 1-.062-.07l1.9-5.315a.077.077 0 0 1 .07-.054h.65a.077.077 0 0 1 .07.054l1.9 5.253a.047.047 0 1 1-.062.07zm-.719-1.911l-.874-2.545-.882 2.545z" class="cls-2" transform="translate(-55.721 -17.687)"/>
        <path id="Path_25" d="M255.041 83.634c-1.277 0-1.973-.851-1.973-2.391v-2.777a.077.077 0 0 1 0-.062l.627-.464h.046a.077.077 0 0 1 .039.07v3.42c0 1.006.4 1.547 1.191 1.547s1.184-.511 1.184-1.547v-2.964a.078.078 0 0 1 0-.062l.634-.464h.046a.077.077 0 0 1 .039.07v3.242c0 1.547-.7 2.391-1.965 2.391" class="cls-2" transform="translate(-57.281 -17.642)"/>
        <path id="Path_26" d="M260.922 83.57a.077.077 0 0 1-.077-.077V78.8H259.3a.077.077 0 0 1-.077-.077v-.542a.077.077 0 0 1 .077-.077h3.992a.077.077 0 0 1 .077.077v.519a.077.077 0 0 1-.077.077h-1.671V83.5a.077.077 0 0 1-.077.077z" class="cls-2" transform="translate(-58.675 -17.678)"/>
        <path id="Path_27" d="M269 83.536a.077.077 0 0 1-.077-.077v-2.422h-2.545v2.422a.077.077 0 0 1-.077.077h-.619a.077.077 0 0 1-.077-.077v-4.99a.077.077 0 0 1 0-.062l.619-.456h.046a.077.077 0 0 1 .039.07v2.321h2.545v-1.874a.077.077 0 0 1 0-.062l.619-.456h.046a.077.077 0 0 1 .039.07v5.416a.077.077 0 0 1-.077.077z" class="cls-2" transform="translate(-60.119 -17.644)"/>
        <path id="Path_28" d="M274.61 83.641c-1.625 0-2.36-1.462-2.36-2.824s.774-2.847 2.36-2.847 2.321 1.478 2.321 2.847-.774 2.824-2.321 2.824m0-4.982c-1.137 0-1.547 1.114-1.547 2.158 0 1.338.572 2.135 1.547 2.135s1.547-.774 1.547-2.135c0-1.044-.41-2.158-1.547-2.158" class="cls-2" transform="translate(-61.624 -17.649)"/>
        <path id="Path_29" d="M282.414 83.54a.077.077 0 0 1-.07-.046l-.967-2.135h-.317a5.56 5.56 0 0 1-.627-.039v2.128a.077.077 0 0 1-.077.077h-.619a.077.077 0 0 1-.077-.077v-5.292a.077.077 0 0 1 .062-.077 10.582 10.582 0 0 1 1.307-.108c1.7 0 1.957 1.06 1.957 1.694a1.547 1.547 0 0 1-.921 1.547l1.044 2.2a.047.047 0 0 1-.062.07zm-1.973-2.862a4.516 4.516 0 0 0 .6.039c.774 0 1.153-.356 1.153-1.06s-.387-1.044-1.153-1.044a3.736 3.736 0 0 0-.6.046z" class="cls-2" transform="translate(-63.301 -17.649)"/>
        <path id="Path_30" d="M285.4 83.536a.077.077 0 0 1-.077-.077v-4.99a.077.077 0 0 1 0-.062l.619-.456h.046a.077.077 0 0 1 .039.07v5.416a.077.077 0 0 1-.077.077z" class="cls-2" transform="translate(-64.581 -17.644)"/>
        <path id="Path_31" d="M289.072 83.57a.077.077 0 0 1-.077-.077V78.8h-1.547a.077.077 0 0 1-.077-.077v-.542a.077.077 0 0 1 .077-.077h3.992a.077.077 0 0 1 .077.077v.519a.077.077 0 0 1-.077.077h-1.671V83.5a.077.077 0 0 1-.077.077z" class="cls-2" transform="translate(-65.046 -17.678)"/>
        <path id="Path_32" d="M294.831 83.579a.077.077 0 0 1-.077-.077v-2.089L293 78.225a.077.077 0 0 1 0-.077.07.07 0 0 1 .062 0h.65a.077.077 0 0 1 .07.039l1.377 2.569 1.377-2.569a.077.077 0 0 1 .07-.039h.658a.07.07 0 0 1 .062 0 .077.077 0 0 1 0 .077l-1.787 3.234v2.05a.077.077 0 0 1-.077.077z" class="cls-2" transform="translate(-66.318 -17.687)"/>
        <path id="Path_33" d="M134.7 31.305a3.721 3.721 0 0 0 2.437-.828 2.1 2.1 0 0 0 1.717.735h10.359a1.95 1.95 0 0 0 2.128-2.128V22.9h-3.373a4.1 4.1 0 0 0-4.17 4.154 3.667 3.667 0 0 0 .774 2.321h-5.648a.34.34 0 0 1-.34-.34V21l-1.88 1.215v.665h-1.826a3.977 3.977 0 0 0-4.1 4.185 3.93 3.93 0 0 0 3.915 4.224m13.33-6.622h1.416v4.309a.34.34 0 0 1-.356.34h-1.052a2.321 2.321 0 1 1 0-4.642m-13.113 0h1.782v2.383a2.125 2.125 0 0 1-2 2.4c-1.284 0-1.988-1.091-1.988-2.4a2.166 2.166 0 0 1 2.2-2.383" class="cls-2" transform="translate(-29.601 -4.753)"/>
        <path id="Path_34" d="M134.048 20.364a1.006 1.006 0 0 0 .913-1.075.928.928 0 1 0-1.826 0 1.006 1.006 0 0 0 .913 1.075" class="cls-2" transform="translate(-30.132 -4.118)"/>
        <path id="Path_35" d="M136.968 20.364a1.006 1.006 0 0 0 .913-1.075.928.928 0 1 0-1.826 0 1.006 1.006 0 0 0 .913 1.075" class="cls-2" transform="translate(-30.793 -4.118)"/>
        <path id="Path_36" d="M151.368 20.654a1.006 1.006 0 0 0 .913-1.075.928.928 0 1 0-1.826 0 1.006 1.006 0 0 0 .913 1.075" class="cls-2" transform="translate(-34.052 -4.183)"/>
        <path id="Path_37" d="M154.258 20.654a1.006 1.006 0 0 0 .913-1.075.928.928 0 1 0-1.826 0 1.006 1.006 0 0 0 .913 1.075" class="cls-2" transform="translate(-34.706 -4.183)"/>
        <path id="Path_38" d="M161.265 31.816a2.367 2.367 0 0 1-.952 2.112 2.623 2.623 0 0 1-1.485.379 6.607 6.607 0 0 1-2.058-.34l.82 1.88a1.678 1.678 0 0 0 .395.108 5.74 5.74 0 0 0 1.253.139 3.768 3.768 0 0 0 2.414-.774 4.51 4.51 0 0 0 1.485-3.768V23.19l-1.88 1.215z" class="cls-2" transform="translate(-35.485 -5.249)"/>
        <path id="Path_39" d="M206.076 17.605a.99.99 0 0 0 .9-1.052.905.905 0 1 0-1.787 0 .99.99 0 0 0 .9 1.052" class="cls-2" transform="translate(-46.442 -3.509)"/>
        <path id="Path_40" d="M204.579 20.564a1.006 1.006 0 0 0 .882-1.075.928.928 0 1 0-1.826 0 1.006 1.006 0 0 0 .913 1.075" class="cls-2" transform="translate(-46.09 -4.163)"/>
        <path id="Path_41" d="M206.584 19.486a.921.921 0 1 0 1.8 0 .921.921 0 1 0-1.8 0" class="cls-2" transform="translate(-46.756 -4.16)"/>
        <path id="Path_42" d="M208.676 28.141V16.83l-1.88 1.377v9.841a.34.34 0 0 1-.34.34h-3.095V21.75l-1.864 1.2v5.1a.333.333 0 0 1-.356.34h-2.251v-6.64l-1.865 1.2v5.1a.34.34 0 0 1-.356.34h-2.236v-6.64l-1.88 1.2v5.1a.325.325 0 0 1-.34.34h-20.285a.325.325 0 0 1-.34-.34V16.83l-1.88 1.2v10.111a1.95 1.95 0 0 0 2.128 2.128h20.989a1.957 1.957 0 0 0 1.122-.518.836.836 0 0 0 .82.557h2.058a2.112 2.112 0 0 0 1.547-.573.82.82 0 0 0 .82.573h2.058a2.112 2.112 0 0 0 1.547-.572.82.82 0 0 0 .82.572h2.863a1.95 1.95 0 0 0 2.128-2.128" class="cls-2" transform="translate(-38.411 -3.809)"/>
        <path id="Path_43" d="M225.49 16.83l-1.88 1.2v12.238h1.88z" class="cls-2" transform="translate(-50.614 -3.809)"/>
        <path id="Path_44" d="M236.541 20.373a1.006 1.006 0 0 0 .921-1.044.928.928 0 1 0-1.826 0 1.006 1.006 0 0 0 .905 1.044" class="cls-2" transform="translate(-53.333 -4.127)"/>
        <path id="Path_45" d="M239.448 20.364a1.006 1.006 0 0 0 .913-1.075.928.928 0 1 0-1.826 0 1.006 1.006 0 0 0 .913 1.075" class="cls-2" transform="translate(-53.989 -4.118)"/>
        <path id="Path_46" d="M269.429 20.6l.395-.82h-1.362a.627.627 0 0 1 0-1.253h.572l.41-.774H268.3a1.447 1.447 0 0 0-1.447 1.431 1.3 1.3 0 0 0 .124.588.967.967 0 0 0-.627.271v.774a1.377 1.377 0 0 1 .9-.232z" class="cls-2" transform="translate(-60.289 -4.018)"/>
        <path id="Path_47" d="M277.46 37.581a.928.928 0 1 0-.913 1.075 1 1 0 0 0 .913-1.075" class="cls-2" transform="translate(-62.386 -8.33)"/>
        <path id="Path_48" d="M273.6 36.4a1.106 1.106 0 1 0 .881 1.083 1.1 1.1 0 0 0-.881-1.083" class="cls-2" transform="translate(-61.723 -8.239)"/>
        <path id="Path_49" d="M268.15 31.212h5.35a3.659 3.659 0 0 0 2-.395 3.76 3.76 0 0 0 2.019.395h3.953a1.942 1.942 0 0 0 2.128-2.128v-2.042a4.077 4.077 0 0 0-4.131-4.154h-5.454l.665 1.2a3.381 3.381 0 0 0-2.321 3.3 2.885 2.885 0 0 0 .72 1.95h-5.214v-6.644l-1.88 1.2v5.1a.34.34 0 0 1-.356.34h-3.699v-6.64l-1.88 1.2v5.1a.34.34 0 0 1-.356.34H241.4a.34.34 0 0 1-.34-.34V21l-1.88 1.215v.665h-1.826a3.977 3.977 0 0 0-4.1 4.185 3.931 3.931 0 0 0 3.922 4.224 3.721 3.721 0 0 0 2.414-.82 2.1 2.1 0 0 0 1.718.735h18.513a2.174 2.174 0 0 0 1.547-.557.843.843 0 0 0 .82.557h3.528a2.174 2.174 0 0 0 1.547-.557.843.843 0 0 0 .82.557m11.388-6.522A2.22 2.22 0 0 1 281.8 27v1.988a.34.34 0 0 1-.34.34h-3.528a2.932 2.932 0 0 0 .735-1.95 3.381 3.381 0 0 0-1.269-2.7zm-3.938.843a1.594 1.594 0 0 1 1.393 1.756 1.431 1.431 0 1 1-2.793 0 1.594 1.594 0 0 1 1.393-1.756m-36.323 1.547a2.125 2.125 0 0 1-2 2.4c-1.284 0-1.988-1.091-1.988-2.4a2.166 2.166 0 0 1 2.2-2.383h1.785z" class="cls-2" transform="translate(-52.797 -4.753)"/>
        <path id="Path_50" d="M135.279 52.1a1.013 1.013 0 1 0 1-1.184 1.114 1.114 0 0 0-1 1.184" class="cls-2" transform="translate(-30.62 -11.526)"/>
        <path id="Path_51" d="M138.522 58.64c0 1.988-1.215 3.435-2.971 3.435s-2.971-1.447-2.971-3.435v-2.878l-1.88 1.2v1.648c0 3.095 2.058 5.3 4.851 5.3s4.851-2.236 4.851-5.3v-7.66l-1.88 1.215z" class="cls-2" transform="translate(-29.584 -11.533)"/>
        <path id="Path_52" d="M158.582 64.15a1.1 1.1 0 1 0 .915 1.083 1.1 1.1 0 0 0-.915-1.083" class="cls-2" transform="translate(-35.688 -14.52)"/>
        <path id="Path_53" d="M161.384 64.145a1.1 1.1 0 1 0 .913 1.091 1 1 0 0 0-.913-1.091" class="cls-2" transform="translate(-36.239 -14.516)"/>
        <path id="Path_54" d="M158.062 57.248a.34.34 0 0 1-.34.34h-3.775v-6.445h-3.3a4.178 4.178 0 1 0-.047 8.357h1.447a2.6 2.6 0 0 1-.874 2.22 2.994 2.994 0 0 1-1.547.379 7.589 7.589 0 0 1-1.609-.2l-.48-.139.82 1.88a1.663 1.663 0 0 0 .34.108 6.12 6.12 0 0 0 1.346.139c2.63 0 3.868-1.9 3.922-4.387h3.868a1.95 1.95 0 0 0 2.128-2.128V50.95l-1.88 1.2zm-6 .34h-1.416a2.321 2.321 0 1 1 0-4.642h1.416z" class="cls-2" transform="translate(-33.149 -11.533)"/>
        <path id="Path_55" d="M171.482 48.468a1.122 1.122 0 0 0 1-1.2 1.013 1.013 0 1 0-2 0 1.122 1.122 0 0 0 1.006 1.2" class="cls-2" transform="translate(-38.585 -10.435)"/>
        <path id="Path_56" d="M183.241 47.264a1.019 1.019 0 1 0-2.012 0 1.021 1.021 0 1 0 2.012 0" class="cls-2" transform="translate(-41.021 -10.43)"/>
        <path id="Path_57" d="M196.99 47.5a1 1 0 0 0-.9-1.091 1.1 1.1 0 0 0 0 2.166.99.99 0 0 0 .9-1.075" class="cls-2" transform="translate(-44.179 -10.505)"/>
        <path id="Path_58" d="M199.89 47.591a.928.928 0 1 0-.913 1.075 1.013 1.013 0 0 0 .913-1.075" class="cls-2" transform="translate(-44.828 -10.595)"/>
        <path id="Path_59" d="M195.776 55.806a.34.34 0 0 1-.34.34h-3.04v-6.638l-1.88 1.2v5.1a.34.34 0 0 1-.356.34h-3.04V44.58l-1.88 1.377v9.849a.34.34 0 0 1-.356.34h-3.095v-6.437h-3.342a4.1 4.1 0 0 0-4.17 4.154 3.675 3.675 0 0 0 .774 2.321h-3.915v-6.676l-1.88 1.2v7.427a2.375 2.375 0 0 1-.952 2.112 2.638 2.638 0 0 1-1.485.379 6.615 6.615 0 0 1-2.058-.34l.828 1.88a1.663 1.663 0 0 0 .395.108 5.74 5.74 0 0 0 1.253.139 3.868 3.868 0 0 0 2.437-.774A4.487 4.487 0 0 0 171.143 58a1.331 1.331 0 0 0 .271 0h8.34a2.166 2.166 0 0 0 1.547-.557.843.843 0 0 0 .82.557h2.94a2.166 2.166 0 0 0 1.547-.557.843.843 0 0 0 .82.557h2.862a2.166 2.166 0 0 0 1.547-.557.843.843 0 0 0 .82.557h2.843a1.95 1.95 0 0 0 2.128-2.128V44.58l-1.88 1.377zm-15.782 0a.34.34 0 0 1-.356.34h-1.06a2.321 2.321 0 1 1 0-4.642h1.416z" class="cls-2" transform="translate(-37.294 -10.091)"/>
        <path id="Path_60" d="M210.82 58.018h1.88V44.58l-1.88 1.2z" class="cls-2" transform="translate(-47.719 -10.091)"/>
        <path id="Path_61" d="M216.44 55.354a4.116 4.116 0 0 0 4.17 4.2h1.447a2.607 2.607 0 0 1-.874 2.22 3 3 0 0 1-1.547.379 7.6 7.6 0 0 1-1.609-.2l-.48-.139.82 1.88a1.649 1.649 0 0 0 .34.108 6.12 6.12 0 0 0 1.338.139 3.806 3.806 0 0 0 2.538-.859 4.642 4.642 0 0 0 1.377-3.667V51.2h-3.3a4.116 4.116 0 0 0-4.224 4.154m5.64 2.321h-1.416a2.321 2.321 0 1 1 0-4.642h1.416z" class="cls-2" transform="translate(-48.991 -11.589)"/>
        <path id="Path_62" d="M239.992 48.152a1.1 1.1 0 1 0-.913-1.075 1.006 1.006 0 0 0 .913 1.075" class="cls-2" transform="translate(-54.115 -10.405)"/>
        <path id="Path_63" d="M237.99 47.181a.928.928 0 1 0-.913 1.075 1.013 1.013 0 0 0 .913-1.075" class="cls-2" transform="translate(-53.452 -10.503)"/>
        <path id="Path_64" d="M246.787 54.766a2.228 2.228 0 0 1 2.321-2.321h1.826l.774-1.787h-2.669a4.093 4.093 0 0 0-4.17 4.154 3.683 3.683 0 0 0 .774 2.321h-3.667a.34.34 0 0 1-.34-.34V48.77l-1.88 1.215v.658h-1.826a3.977 3.977 0 0 0-4.1 4.185 3.931 3.931 0 0 0 3.922 4.224 3.721 3.721 0 0 0 2.4-.82 2.1 2.1 0 0 0 1.717.735h10.661v-1.873h-3.489a2.228 2.228 0 0 1-2.321-2.321m-7.048.054a2.125 2.125 0 0 1-2 2.4c-1.284 0-1.988-1.091-1.988-2.4a2.166 2.166 0 0 1 2.2-2.383h1.787z" class="cls-2" transform="translate(-52.926 -11.039)"/>
        <path id="Path_65" d="M261.24 58.018h1.88V44.58l-1.88 1.2z" class="cls-2" transform="translate(-59.132 -10.091)"/>
        <path id="Path_66" d="M269.155 48.468a1.122 1.122 0 0 0 1.006-1.2 1.013 1.013 0 1 0-2 0 1.122 1.122 0 0 0 1.006 1.2" class="cls-2" transform="translate(-60.695 -10.435)"/>
        <path id="Path_67" d="M269.7 51.2h-1.81l.774 1.787h1.021a2.22 2.22 0 0 1 2.321 2.321V57.3c0 .232-.07.34-.356.34h-4.74v1.919h4.851a1.934 1.934 0 0 0 2.112-2.128v-2.077a4.077 4.077 0 0 0-4.154-4.154" class="cls-2" transform="translate(-60.415 -11.589)"/>
        <path id="Path_68" d="M281.92 65.816a.627.627 0 0 1 .681-.642h.611l.41-.774h-1.184a1.439 1.439 0 0 0-1.416 1.447 1.385 1.385 0 0 0 .124.611.89.89 0 0 0-.627.248v.774a1.369 1.369 0 0 1 .9-.232h2.166l.4-.836h-1.362a.611.611 0 0 1-.681-.611" class="cls-2" transform="translate(-63.496 -14.577)"/>
        <path id="Path_69" d="M292.172 45.96v9.84a.34.34 0 0 1-.34.34h-3.095V44.56l-1.88 1.215v10.057a.325.325 0 0 1-.34.34h-3.095v-8.053l-1.88 1.2v6.816h-2.452v1.919h7.535a2.151 2.151 0 0 0 1.594-.572.82.82 0 0 0 .82.572h2.878a1.95 1.95 0 0 0 2.128-2.128V44.575z" class="cls-2" transform="translate(-63.172 -10.086)"/>
    </g>
</svg>
